<?xml version="1.0" encoding="UTF-8" standalone="no"?>
<svg
   width="0.001"
   height="0.001"
   viewBox="0 0 0.001 0.001"
   version="1.1"
   id="svg71"
   sodipodi:docname="image (3).svg"
   inkscape:version="1.4.2 (f4327f4, 2025-05-13)"
   inkscape:export-filename="image (3).png"
   inkscape:export-xdpi="96"
   inkscape:export-ydpi="96"
   xmlns:inkscape="http://www.inkscape.org/namespaces/inkscape"
   xmlns:sodipodi="http://sodipodi.sourceforge.net/DTD/sodipodi-0.dtd"
   xmlns:xlink="http://www.w3.org/1999/xlink"
   xmlns="http://www.w3.org/2000/svg"
   xmlns:svg="http://www.w3.org/2000/svg">
  <defs
     id="defs71" />
  <sodipodi:namedview
     id="namedview71"
     pagecolor="#fffffd"
     bordercolor="#000000"
     borderopacity="0.25"
     inkscape:showpageshadow="2"
     inkscape:pageopacity="0.0"
     inkscape:pagecheckerboard="0"
     inkscape:deskcolor="#d1d1d1"
     inkscape:zoom="0.28260103"
     inkscape:cx="-61.924757"
     inkscape:cy="-426.39619"
     inkscape:window-width="3840"
     inkscape:window-height="2054"
     inkscape:window-x="3829"
     inkscape:window-y="-11"
     inkscape:window-maximized="1"
     inkscape:current-layer="svg71"
     inkscape:clip-to-page="false" />
  <g
     id="g79"
     transform="translate(648.66287,870.48516)">
    <rect
       style="fill:none;stroke-width:6.82153;stroke-linecap:round;stroke-linejoin:round"
       id="rect71"
       width="410.35062"
       height="410.35062"
       x="-1087.5328"
       y="-538.13568" />
    <use
       x="0"
       y="0"
       xlink:href="#rect71"
       id="use76"
       transform="translate(410.35059)" />
    <use
       x="0"
       y="0"
       xlink:href="#use76"
       id="use77"
       transform="translate(410.35059)" />
    <use
       x="0"
       y="0"
       xlink:href="#use77"
       id="use78"
       transform="translate(410.35062)" />
    <use
       x="0"
       y="0"
       xlink:href="#use78"
       id="use79"
       transform="translate(410.35062)" />
  </g>
  <g
     id="g76"
     transform="translate(247.15198,229.68329)">
    <path
       fill="#3d2922"
       d="m 645.25,133.102 c 16.964,0.727 38.755,0.157 56.127,0.165 l 117.892,0.187 -0.048,17.643 c 11.663,-0.051 23.326,-0.017 34.988,0.1 -0.302,5.493 -0.241,11.633 -0.305,17.177 5.734,0.16 11.954,0.065 17.727,0.079 l -0.007,17.095 17.302,0.265 c -0.243,23.178 0.006,46.948 0.133,70.141 l -17.475,0.024 -0.057,17.416 c -11.459,-0.004 -23.318,0.134 -34.738,-0.099 l 0.027,17.812 -17.516,-0.116 -0.191,34.553 17.377,0.057 0.018,17.851 17.383,-0.035 c -0.017,5.748 0.045,11.692 -0.149,17.422 l 17.806,0.095 0.103,34.502 c 5.827,0.018 11.919,0.16 17.712,-0.259 -0.314,-6.613 -0.349,-13.444 -0.287,-20.069 0.155,-16.558 -0.387,-33.321 0.015,-49.852 11.96,0.192 23.922,0.263 35.884,0.211 -0.01,28.763 0.431,58.828 -0.072,87.517 l -16.458,-0.032 -0.768,-0.041 c -0.267,5.187 -0.102,12.112 -0.122,17.43 -5.594,-0.133 -11.634,-0.022 -17.264,-0.016 -0.023,5.888 -0.008,11.776 0.045,17.664 l -18.647,0.039 c -0.153,11.329 0.021,23.192 0.079,34.547 l -209.169,0.006 c 0.931,-58.055 -0.609,-116.691 0.263,-174.675 l -17.631,-0.076 c -0.069,-5.621 -0.056,-11.242 0.037,-16.863 -5.885,-0.094 -11.889,-0.06 -17.785,-0.086 l -0.034,-17.494 -34.398,0.059 c 0.108,-5.964 0.181,-11.929 0.22,-17.894 l -17.997,-0.104 c 0.359,-23.114 -0.073,-46.708 0.13,-69.939 l 17.628,0.042 -0.042,-16.931 17.782,-0.1 0.048,-17.449 34.534,0.102 c 0.149,-6.051 0.006,-12.022 -0.1,-18.071 z"
       id="path2" />
    <path
       fill="#dca463"
       d="m 670.191,151.407 5.25,-0.004 c 12.094,0.607 26.059,0 38.393,0.11 29.2,0.259 58.946,-0.525 88.109,0.045 -0.03,10.746 -0.352,23.304 0.016,33.922 0.039,17.284 -0.242,35.504 0.13,52.695 5.417,0.023 11.47,-0.089 16.823,0.298 l 0.027,33.249 c 0.006,5.057 -0.232,14.007 0.248,18.804 -5.907,-0.169 -11.816,-0.21 -17.725,-0.124 -0.111,5.747 -0.389,11.513 -0.495,17.212 -5.314,-0.034 -11.249,0.055 -16.512,-0.127 -4.984,-0.132 -11.544,-0.26 -16.404,0.364 0.092,-4.339 0.392,-12.856 -0.197,-16.883 -0.36,1.388 -0.342,14.731 -0.384,17.179 -22.719,0.076 -46.289,0.331 -68.93,-0.033 -0.006,-4.201 0.181,-13.575 -0.379,-17.251 -0.461,4.649 -0.249,11.818 -0.065,16.573 -4.914,-0.023 -12.218,-0.265 -16.966,-0.006 l -17.766,10e-4 -0.071,-17.089 -17.794,0.058 -0.08,-51.486 17.237,-0.101 c 0.238,-16.933 0.406,-36.147 -0.046,-53.002 l 0.015,-34.25 c 2.585,0.043 4.99,-0.058 7.566,-0.154 z"
       id="path3" />
    <path
       fill="#3d2922"
       d="m 715.384,238.096 c 11.705,0.05 23.41,0.18 35.113,0.39 l -10e-4,35.481 -6.595,0.112 c 0.032,5.448 0.029,10.897 -0.01,16.345 7.662,0.003 15.463,-0.075 23.111,0.014 -0.075,-5.815 -0.228,-11.629 -0.459,-17.441 l 17.979,0.007 -0.037,17.993 -16.631,-0.029 c -0.36,1.388 -0.342,14.731 -0.384,17.179 -22.719,0.076 -46.289,0.331 -68.93,-0.033 -0.006,-4.201 0.181,-13.575 -0.379,-17.251 -5.482,0.023 -12.184,0.214 -17.575,-0.002 l -0.014,-17.988 17.918,0.113 -0.069,17.545 33.618,-0.455 -0.004,-16.313 c -5.543,-0.037 -11.086,0.023 -16.626,0.182 z"
       id="path4" />
    <path
       fill="#3d2922"
       d="m 680.752,202.183 17.748,-0.081 c -0.049,11.675 0.32,24.936 -0.146,36.444 -5.767,0.017 -11.677,0.179 -17.454,0.276 -0.241,-12.212 -0.291,-24.426 -0.148,-36.639 z"
       id="path5" />
    <path
       fill="#3d2922"
       d="m 767.484,202.454 16.998,0.014 c 0.021,11.836 -0.042,23.672 -0.19,35.507 -5.09,0.233 -11.667,0.07 -16.868,0.081 z"
       id="path6" />
    <path
       fill="#dca463"
       d="m 784.627,325.591 34.529,0.246 0.031,17.843 17.115,-0.121 0.152,17.518 c 5.706,0.031 11.411,0.007 17.116,-0.072 l -0.038,103.467 -68.988,-0.003 0.01,-16.488 -17.099,0.013 0.014,-52.973 -17.389,0.08 c 0.015,21.807 0.712,47.916 -0.025,69.402 l -17.456,-0.031 -0.009,-69.428 -17.182,0.016 0.09,52.061 -16.592,0.02 0.08,17.332 h -18.672 c 0.464,-40.121 0.182,-80.849 0.143,-121.01 l 104.042,0.044 c -10e-4,-5.854 -0.113,-12.097 0.128,-17.916 z"
       id="path7" />
    <path
       fill="#3d2922"
       d="m 801.994,395.164 16.992,-0.077 0.074,17.426 h -16.763 c 0.049,11.724 0.25,23.822 -0.016,35.516 l -17.427,0.028 -0.039,-35.929 17.184,-0.032 c -0.105,-5.643 -0.107,-11.288 -0.005,-16.932 z"
       id="path8" />
    <path
       fill="#de7a2d"
       d="m 675.441,151.403 c 14.593,-0.942 36.232,-0.331 51.31,-0.352 30.802,-0.212 61.606,-0.088 92.406,0.371 l -0.088,17.253 c 11.2,-0.021 23.332,0.161 34.469,-0.141 l 0.046,17.398 18.173,-0.121 c -0.109,23.436 0.344,46.65 -0.173,70.167 -11.737,-0.048 -23.773,0.04 -35.484,-0.162 l -0.028,-17.312 -16.682,-0.032 0.084,33.643 c 0.011,4.229 0.24,14.584 -0.287,18.411 -0.48,-4.797 -0.242,-13.747 -0.248,-18.804 l -0.027,-33.249 c -5.353,-0.387 -11.406,-0.275 -16.823,-0.298 -0.372,-17.191 -0.091,-35.411 -0.13,-52.695 -0.368,-10.618 -0.046,-23.176 -0.016,-33.922 -29.163,-0.57 -58.909,0.214 -88.109,-0.045 -12.334,-0.11 -26.299,0.497 -38.393,-0.11 z"
       id="path9" />
    <path
       fill="#3d2922"
       d="m 801.959,185.48 c 5.736,-0.075 11.365,-0.198 17.1,0.042 l 0.053,35.761 c 0.006,3.113 0.193,14.669 -0.2,17.19 -5.353,-0.387 -11.406,-0.275 -16.823,-0.298 -0.372,-17.191 -0.091,-35.411 -0.13,-52.695 z"
       id="path10" />
    <path
       fill="#de7a2d"
       d="m 645.484,151.409 c 6.957,-0.162 18.112,-0.603 24.707,-0.002 -2.576,0.096 -4.981,0.197 -7.566,0.154 l -0.015,34.25 c -5.819,-0.116 -11.76,-0.096 -17.59,-0.133 l -0.069,52.827 c -5.76,0.001 -11.667,-0.149 -17.438,-0.237 l 0.032,17.277 -34.221,-0.165 c -0.81,-21.824 -0.091,-47.652 -0.019,-69.712 5.7,0.143 11.569,0.08 17.283,0.089 l 0.274,-17.182 c 11.007,0.498 23.315,0.303 34.401,0.331 z"
       id="path11" />
    <path
       fill="#de7a2d"
       d="m 698.161,290.863 c 0.56,3.676 0.373,13.05 0.379,17.251 22.641,0.364 46.211,0.109 68.93,0.033 0.042,-2.448 0.024,-15.791 0.384,-17.179 0.589,4.027 0.289,12.544 0.197,16.883 4.86,-0.624 11.42,-0.496 16.404,-0.364 0.117,6.034 0.175,12.069 0.172,18.104 -33.933,-0.632 -69.195,-0.005 -103.316,-0.257 0.006,-5.962 0.072,-11.95 -0.181,-17.904 4.748,-0.259 12.052,-0.017 16.966,0.006 -0.184,-4.755 -0.396,-11.924 0.065,-16.573 z"
       id="path12" />
    <path
       fill="#de7a2d"
       d="m 889.987,412.524 0.05,17.482 -18.186,0.025 0.051,-17.288 z"
       id="path13" />
    <path
       fill="#de7a2d"
       d="m 907.348,395.08 c 0.573,2.66 0.075,13.592 0.017,16.875 -5.794,-0.052 -11.588,-0.02 -17.38,0.098 0.02,-5.584 -0.028,-11.168 -0.143,-16.751 z"
       id="path14" />
    <path
       fill="#8d5831"
       d="m 907.348,395.08 -0.058,-0.567 c -0.465,-5.061 -0.767,-48.584 0.438,-50.224 0.559,5.746 0.325,14.194 0.315,20.171 l -0.048,32.928 c -0.006,2.283 -0.563,14.401 0.446,15.564 l -0.768,-0.041 c -2.437,-1.038 -14.393,-0.468 -17.686,-0.387 l -0.002,-0.471 c 5.792,-0.118 11.586,-0.15 17.38,-0.098 0.058,-3.283 0.556,-14.215 -0.017,-16.875 z"
       id="path15" />
  </g>
  <g
     id="g72"
     transform="translate(-465.17943,255.45297)">
    <path
       fill="#dca463"
       d="m 186.886,115.565 c 11.759,0.12 23.734,0.001 35.51,-0.002 -0.082,5.96 -0.074,11.921 0.025,17.881 5.858,-0.043 11.716,-0.047 17.574,-0.013 l -0.067,17.417 87.549,0.222 c 0.011,-5.86 0.082,-11.85 0.003,-17.699 l 17.601,0.094 -0.063,-17.839 c 11.617,0.051 23.812,-0.068 35.382,0.221 -1.012,51.811 -0.362,105.257 -0.604,157.249 l -16.894,0.021 c 0.01,58.001 0.435,116.608 -0.218,174.561 -13.3,0.402 -26.622,0.279 -39.928,0.445 -57.09,0.445 -114.181,0.565 -171.272,0.362 1.012,-5.131 0.546,-30.006 0.52,-36.394 l -34.449,10e-4 c 0.044,-5.808 0.032,-11.711 0.138,-17.509 l -17.138,0.267 -0.02,-16.17 c -5.9507,0.084 -12.0261,0.231 -17.9655,0.236 l 0.0121,-140.349 c 5.9714,0.014 11.9429,-0.004 17.9144,-0.055 0.03,-5.676 0.108,-11.351 0.234,-17.026 l 34.309,0.117 -0.021,16.915 17.418,0.271 c -0.139,11.365 -0.138,22.73 0.001,34.094 l -17.308,-0.011 c 0.207,29.244 0.147,58.489 -0.18,87.732 5.694,0.161 11.389,0.287 17.085,0.377 l -0.023,-17.818 18.147,0.315 0.193,-35.466 c 5.578,0.015 11.156,-0.003 16.733,-0.053 -0.196,-5.746 -0.099,-12.074 -0.109,-17.867 l 17.535,0.107 -0.005,-17.01 -17.506,0.048 z"
       id="path16" />
    <path
       fill="#3d2922"
       d="m 186.886,115.565 c 11.759,0.12 23.734,0.001 35.51,-0.002 -0.082,5.96 -0.074,11.921 0.025,17.881 -5.852,0.221 -11.706,0.374 -17.562,0.458 l -0.004,121.602 17.335,-0.051 c 0.013,5.857 -0.019,11.714 -0.097,17.57 l 17.594,-0.007 c 0.047,5.783 0.172,11.721 0.009,17.49 l -34.789,0.009 0.082,17.466 -17.495,-0.174 c 0.568,11.929 0.381,23.763 0.47,35.698 l -17.544,0.054 c -0.109,28.808 0.231,58.267 -0.361,87.034 23.123,0.064 46.246,-0.011 69.368,-0.225 l 0.071,-17.77 c -5.621,0.053 -11.241,0.142 -16.861,0.267 l -0.085,-34.196 c -5.749,0.07 -11.8,0.241 -17.525,0.103 l 0.011,-17.839 17.944,-0.101 -0.093,17.742 17.122,-0.009 0.056,33.577 17.317,-0.075 -0.107,-51.379 c 5.91,-0.031 11.821,-0.108 17.731,-0.232 l 0.044,36.919 -0.026,32.728 17.245,0.026 -0.153,-69.273 18.456,-0.22 -0.089,51.792 16.631,-0.113 c 0.115,5.992 0.115,11.986 0,17.978 l 18.1,0.087 -0.036,-139.66 c -5.902,-0.145 -11.806,-0.2 -17.71,-0.165 l -0.002,-17.989 17.686,-0.018 -0.159,-17.477 17.513,-0.048 -0.039,-121.121 c -5.558,-0.036 -11.478,0.02 -17,-0.162 l 0.099,17.873 c -6.015,0.048 -12.031,0.033 -18.046,-0.045 l -0.026,17.111 -88.07,0.075 0.034,-17.237 -17.028,-0.035 c -0.002,-5.889 0.114,-12.186 -0.011,-18.038 5.858,-0.043 11.716,-0.047 17.574,-0.013 l -0.067,17.417 87.549,0.222 c 0.011,-5.86 0.082,-11.85 0.003,-17.699 l 17.601,0.094 -0.063,-17.839 c 11.617,0.051 23.812,-0.068 35.382,0.221 -1.012,51.811 -0.362,105.257 -0.604,157.249 l -16.894,0.021 c 0.01,58.001 0.435,116.608 -0.218,174.561 -13.3,0.402 -26.622,0.279 -39.928,0.445 -57.09,0.445 -114.181,0.565 -171.272,0.362 1.012,-5.131 0.546,-30.006 0.52,-36.394 l -34.449,10e-4 c 0.044,-5.808 0.032,-11.711 0.138,-17.509 l -17.138,0.267 -0.02,-16.17 c -5.9507,0.084 -12.0261,0.231 -17.9655,0.236 l 0.0121,-140.349 c 5.9714,0.014 11.9429,-0.004 17.9144,-0.055 0.03,-5.676 0.108,-11.351 0.234,-17.026 l 34.309,0.117 -0.021,16.915 17.418,0.271 c -0.139,11.365 -0.138,22.73 0.001,34.094 l -17.308,-0.011 c 0.207,29.244 0.147,58.489 -0.18,87.732 5.694,0.161 11.389,0.287 17.085,0.377 l -0.023,-17.818 18.147,0.315 0.193,-35.466 c 5.578,0.015 11.156,-0.003 16.733,-0.053 -0.196,-5.746 -0.099,-12.074 -0.109,-17.867 l 17.535,0.107 -0.005,-17.01 -17.506,0.048 z"
       id="path17" />
    <path
       fill="#dca463"
       d="m 135.018,238.518 17.418,0.271 c -0.139,11.365 -0.138,22.73 0.001,34.094 l -17.308,-0.011 c 0.207,29.244 0.147,58.489 -0.18,87.732 l 0.07,33.984 -17.309,-0.015 c 0.164,-5.449 0.24,-10.901 0.227,-16.353 -5.612,-0.038 -11.455,0.096 -17.085,0.144 l 0.043,-139.657 c 10.902,-0.353 23.119,-0.151 34.123,-0.189 z"
       id="path18" />
    <path
       fill="#3d2922"
       d="m 135.018,238.518 17.418,0.271 c -0.139,11.365 -0.138,22.73 0.001,34.094 l -17.308,-0.011 c 0.207,29.244 0.147,58.489 -0.18,87.732 -5.502,0.423 -12.055,0.318 -17.646,0.364 -0.566,-28.491 0.174,-59.684 0.227,-88.343 l 17.408,-0.08 c -0.311,-10.7 0.033,-23.192 0.08,-34.027 z"
       id="path19" />
    <path
       fill="#3d2922"
       d="m 310.654,202.247 c 5.051,-0.094 12.532,-0.396 17.373,0.03 -0.109,4.586 0.408,34.929 -0.688,36.59 l -17.465,0.081 c -0.005,-8.712 -0.09,-26.604 0.119,-35.974 0.22,-0.242 0.44,-0.485 0.661,-0.727 z"
       id="path20" />
    <path
       fill="#3d2922"
       d="m 256.982,202.267 0.241,0.232 c 0.408,2.174 0.224,9.063 0.216,11.74 l -0.094,24.724 -17.25,0.018 c -1.546,-2.348 -0.695,-31.689 -0.68,-36.618 z"
       id="path21" />
    <path
       fill="#3d2922"
       d="m 286.72,238.24 6.25,-0.106 0.043,17.855 -10.153,0.016 -7.461,0.038 c -0.05,-5.844 0.03,-11.804 0.049,-17.658 z"
       id="path22" />
  </g>
  <g
     id="g75"
     transform="translate(622.59276,-191.95974)">
    <path
       fill="#3d2922"
       d="m 801.848,553.648 c 11.728,0.079 23.457,0.028 35.184,-0.153 -0.466,35.008 -0.095,70.919 -0.016,105.982 l -17.308,0.018 0.063,34.533 -17.825,0.117 c -0.083,5.784 -0.099,11.57 -0.047,17.355 l 88.137,0.026 -0.016,-16.994 18.142,-0.023 0.034,-53.456 c 11.443,-0.033 23.114,0.038 34.537,-0.146 -0.172,12.16 -0.234,24.321 -0.187,36.481 l 0.128,17.587 -0.112,34.544 -6.05,0.046 c -3.872,0.349 -7.116,0.421 -11.013,0.478 -0.346,52.707 -0.376,105.416 -0.089,158.123 l -53.996,-0.126 0.068,-18.073 -33.198,0.004 0.102,-34.418 -18.748,-0.004 -0.049,33.46 c 10e-4,5.363 0.276,13.657 -0.219,18.623 -1.228,0.749 -2.292,0.507 -3.771,0.443 -4.514,0.349 -9.069,0.352 -13.598,0.416 l 0.002,16.983 -51.997,-0.067 c -0.155,-8.977 0.812,-27.205 0.008,-35.062 l -0.846,-0.454 c -5.387,0.129 -10.775,0.186 -16.163,0.171 -0.113,2.773 -0.156,6.416 -0.427,9.104 l 0.006,9.34 c -17.547,-0.225 -35.096,-0.308 -52.645,-0.249 l 0.019,-34.806 17.216,-0.005 0.201,-0.237 c 0.659,-9.979 0.192,-25.447 0.193,-35.931 l 0.092,-70.147 c -17.333,0.437 -35.178,0.137 -52.595,0.242 -0.02,-5.9 0.14,-12.024 0.217,-17.941 l -17.785,-0.02 0.018,-52.93 17.557,0.118 0.054,-18.096 c 5.952,-0.046 11.904,-0.014 17.855,0.098 -0.288,-5.128 -0.068,-12.681 -0.071,-17.953 l 0.035,-34.533 17.568,0.211 0.04,-52.707 c 11.493,0.172 23.525,-0.036 35.056,-0.079 -0.093,5.714 -0.064,11.43 0.087,17.142 1.348,1.22 3.607,0.793 5.942,0.886 l 10.876,-0.056 -0.004,34.689 51.72,0.1 c 0.247,-11.659 0.106,-23.19 0.214,-34.822 l 16.643,0.099 c 0.918,-1.759 0.229,-13.955 0.761,-17.931 z"
       id="path23" />
    <path
       fill="#3d2922"
       d="m 819.618,729.454 c 6.124,-0.363 11.789,-0.616 17.935,0.033 17.323,0.147 35.385,-0.321 52.568,0.066 -0.092,4.215 -0.483,14.015 0.13,17.851 0.408,-3.334 0.252,-13.608 0.279,-17.461 11.656,0.11 23.312,0.143 34.969,0.1 -0.346,52.707 -0.376,105.416 -0.089,158.123 l -53.996,-0.126 0.068,-18.073 -33.198,0.004 0.102,-34.418 -18.748,-0.004 -0.049,33.46 c 10e-4,5.363 0.276,13.657 -0.219,18.623 -1.228,0.749 -2.292,0.507 -3.771,0.443 -4.514,0.349 -9.069,0.352 -13.598,0.416 l 0.002,16.983 -51.997,-0.067 c -0.155,-8.977 0.812,-27.205 0.008,-35.062 l -0.846,-0.454 c -3.562,-0.731 -12.099,-0.361 -16.077,-0.263 0.072,-17.381 0.042,-34.763 -0.09,-52.144 11.17,-0.179 23.069,-0.517 34.176,-0.177 0.096,-5.729 0.153,-11.459 0.172,-17.19 15.504,0.643 35.96,-0.234 52.008,-0.125 -0.162,-23.126 0.089,-47.382 0.261,-70.538 z"
       id="path24" />
    <path
       fill="#b9b39e"
       d="m 819.618,729.454 c 6.124,-0.363 11.789,-0.616 17.935,0.033 17.323,0.147 35.385,-0.321 52.568,0.066 -0.092,4.215 -0.483,14.015 0.13,17.851 l 17.772,-0.121 c -0.026,5.491 -0.125,11.159 -0.063,16.634 0.012,6.163 0.105,12.501 0.034,18.647 l -35.988,-0.069 c -0.002,8.727 0.512,27.053 -0.354,35.169 -0.428,-2.499 -0.265,-9.964 -0.244,-12.78 l 0.135,-22.322 c -5.191,0.029 -11.946,0.253 -16.992,-0.229 l -0.002,34.888 -34.965,0.033 c -0.315,-2.03 -0.168,-14.377 -0.227,-17.262 -0.162,-23.126 0.089,-47.382 0.261,-70.538 z"
       id="path25" />
    <path
       fill="#6e675f"
       d="m 819.618,729.454 c 6.124,-0.363 11.789,-0.616 17.935,0.033 l -0.054,70.512 c -5.531,0.119 -12.166,0.486 -17.568,0.415 0.021,4.652 0.261,12.455 -0.347,16.84 -0.315,-2.03 -0.168,-14.377 -0.227,-17.262 -0.162,-23.126 0.089,-47.382 0.261,-70.538 z"
       id="path26" />
    <path
       fill="#6e675f"
       d="m 871.698,764.207 c 11.905,0.143 24.309,-0.195 36.262,-0.29 0.012,6.163 0.105,12.501 0.034,18.647 l -35.988,-0.069 c -0.002,8.727 0.512,27.053 -0.354,35.169 -0.428,-2.499 -0.265,-9.964 -0.244,-12.78 l 0.135,-22.322 c -5.191,0.029 -11.946,0.253 -16.992,-0.229 4.092,-0.494 12.731,-0.271 17.106,-0.27 z"
       id="path27" />
    <path
       fill="#b9b39e"
       d="m 872.006,782.495 35.988,0.069 -0.09,52.537 c -5.834,-0.08 -11.669,-0.106 -17.504,-0.08 l 0.013,-17.533 -18.761,0.176 c 0.866,-8.116 0.352,-26.442 0.354,-35.169 z"
       id="path28" />
    <path
       fill="#b9b39e"
       d="m 785.036,818.499 c 5.786,-0.083 11.641,-0.124 17.418,-0.282 0.005,17.171 -0.279,35.17 0.041,52.267 -5.678,-0.014 -11.356,-0.122 -17.03,-0.322 -0.018,-10.983 0.276,-24.43 -0.383,-35.181 z"
       id="path29" />
    <path
       fill="#6e675f"
       d="m 785.082,834.981 c 0.659,10.751 0.365,24.198 0.383,35.181 5.674,0.2 11.352,0.308 17.03,0.322 0.056,5.813 0.039,11.627 -0.052,17.439 3.821,-0.018 9.494,-0.21 13.156,0.152 -4.514,0.349 -9.069,0.352 -13.598,0.416 -5.266,-0.038 -31.459,0.489 -34.56,-0.35 -10e-4,-6.027 0.058,-12.053 0.177,-18.078 l 17.415,-0.079 c -0.383,-9.27 -0.426,-25.813 0.049,-35.003 z"
       id="path30" />
    <path
       fill="#b9b39e"
       d="m 785.033,869.984 c 0.154,5.899 0.031,12.273 0.327,18.078 -4.198,-0.039 -14.079,-0.371 -17.919,0.079 -10e-4,-6.027 0.058,-12.053 0.177,-18.078 z"
       id="path31" />
    <path
       fill="#eadec5"
       d="m 871.858,835.514 c 5.885,-0.021 12.18,0.054 18.033,-0.13 -0.091,5.507 -0.023,12.416 -0.49,17.785 -0.662,4.382 -0.399,12.374 -0.369,17.042 -4.833,-0.613 -11.588,0.125 -17.02,-0.471 l -0.46,-0.676 c -0.354,-3.967 -0.102,-11.432 -0.09,-15.654 -5.435,-0.114 -11.032,-0.091 -16.482,-0.134 -0.104,-5.715 -0.113,-11.431 -0.027,-17.146 5.493,-0.069 11.488,0.004 16.905,-0.616 z"
       id="path32" />
    <path
       fill="#6e675f"
       d="m 854.953,836.13 c 5.493,-0.069 11.488,0.004 16.905,-0.616 0.023,6.352 0.504,28.834 -0.306,33.55 -0.354,-3.967 -0.102,-11.432 -0.09,-15.654 -5.435,-0.114 -11.032,-0.091 -16.482,-0.134 -0.104,-5.715 -0.113,-11.431 -0.027,-17.146 z"
       id="path33" />
    <path
       fill="#eadec5"
       d="m 750.548,835.539 16.964,-0.034 c -0.086,11.425 0.03,22.786 -0.153,34.23 -5.493,-0.144 -11.361,-0.002 -16.882,0.035 z"
       id="path34" />
    <path
       fill="#6e675f"
       d="m 889.401,853.169 18.458,-0.119 0.123,17.452 c -3.728,0.01 -16.002,0.232 -18.95,-0.291 -0.03,-4.668 -0.293,-12.66 0.369,-17.042 z"
       id="path35" />
    <path
       fill="#b9b39e"
       d="m 680.553,553.62 c 11.493,0.172 23.525,-0.036 35.056,-0.079 -0.093,5.714 -0.064,11.43 0.087,17.142 1.348,1.22 3.607,0.793 5.942,0.886 l 10.876,-0.056 -0.004,34.689 51.72,0.1 c 0.247,-11.659 0.106,-23.19 0.214,-34.822 l 16.643,0.099 c 1.108,3.257 0.572,29.849 0.572,35.069 -5.895,0.128 -11.398,10e-4 -17.287,-0.15 -0.038,5.617 -0.168,11.395 0.127,16.991 0.118,6.077 0.114,12.156 -0.011,18.233 5.78,0.03 11.684,0.131 17.45,-0.051 0.25,17.314 0.317,34.631 0.202,51.947 l -17.264,-0.098 0.038,17.98 -17.104,-0.049 0.214,17.577 c -40.259,-0.016 -82.46,-0.695 -122.56,0.125 l -0.01,-34.454 c 11.685,0.191 23.423,-0.008 35.036,0.217 l 0.038,-18.531 -17.501,-0.045 c -0.012,-5.675 0.132,-12.131 -0.046,-17.738 -0.288,-5.128 -0.068,-12.681 -0.071,-17.953 l 0.035,-34.533 17.568,0.211 z"
       id="path36" />
    <path
       fill="#3d2922"
       d="m 680.553,553.62 c 11.493,0.172 23.525,-0.036 35.056,-0.079 -0.093,5.714 -0.064,11.43 0.087,17.142 1.348,1.22 3.607,0.793 5.942,0.886 l 10.876,-0.056 -0.004,34.689 51.72,0.1 c 0.247,-11.659 0.106,-23.19 0.214,-34.822 l 16.643,0.099 c 1.108,3.257 0.572,29.849 0.572,35.069 -5.895,0.128 -11.398,10e-4 -17.287,-0.15 -0.038,5.617 -0.168,11.395 0.127,16.991 l -103.726,-0.051 -0.177,35.204 c -5.69,0.024 -11.981,0.183 -17.615,-0.04 -0.288,-5.128 -0.068,-12.681 -0.071,-17.953 l 0.035,-34.533 17.568,0.211 z"
       id="path37" />
    <path
       fill="#6e675f"
       d="m 715.696,570.683 c 1.348,1.22 3.607,0.793 5.942,0.886 -1.725,0.226 -3.885,0.323 -5.655,0.453 l 0.039,34.171 -18.6,-0.114 0.024,-34.073 c 5.051,-0.12 10.063,-0.156 15.113,-0.173 1.871,-0.006 2.179,-0.119 3.137,-1.15 z"
       id="path38" />
    <path
       fill="#3d2922"
       d="m 732.386,658.502 18.129,-0.148 -0.022,36.866 c -5.91,-0.272 -12.099,-0.16 -18.035,-0.147 z"
       id="path39" />
    <path
       fill="#b9b39e"
       d="m 784.515,729.497 c 11.701,0.045 23.402,0.031 35.103,-0.043 -0.172,23.156 -0.423,47.412 -0.261,70.538 -16.048,-0.109 -36.504,0.768 -52.008,0.125 -0.019,5.731 -0.076,11.461 -0.172,17.19 -11.107,-0.34 -23.006,-0.002 -34.176,0.177 l -0.429,-5.134 -0.011,-12.342 -17.332,-0.021 -0.232,-34.509 c -0.208,-6.279 -0.097,-12.532 -0.036,-18.812 l 69.605,-0.297 c -0.191,-5.25 -0.05,-11.554 -0.051,-16.872 z"
       id="path40" />
    <path
       fill="#6e675f"
       d="m 784.566,746.369 c 0.112,6.082 -0.038,13.187 0.247,19.107 -22.489,0.027 -47.506,0.62 -69.816,0.002 -0.208,-6.279 -0.097,-12.532 -0.036,-18.812 z"
       id="path41" />
    <path
       fill="#6e675f"
       d="m 732.572,812.35 0.429,5.134 c 0.132,17.381 0.162,34.763 0.09,52.144 3.978,-0.098 12.515,-0.468 16.077,0.263 -5.387,0.129 -10.775,0.186 -16.163,0.171 -0.113,2.773 -0.156,6.416 -0.427,9.104 l 0.006,9.34 c -17.547,-0.225 -35.096,-0.308 -52.645,-0.249 l 0.019,-34.806 17.216,-0.005 0.201,-0.237 c 4.475,0.43 12.8,0.248 17.571,0.259 -0.127,-11.981 -0.171,-23.962 -0.133,-35.943 5.605,-0.003 11.638,0.112 17.199,-0.23 0.537,-0.836 0.493,-3.706 0.56,-4.945 z"
       id="path42" />
    <path
       fill="#3d2922"
       d="m 679.958,853.451 17.216,-0.005 c -0.17,5.716 -0.249,11.435 -0.239,17.154 11.624,-0.02 23.945,0.147 35.513,-0.134 -0.01,2.658 -0.135,6.117 0.13,8.7 l 0.006,9.34 c -17.547,-0.225 -35.096,-0.308 -52.645,-0.249 z"
       id="path43" />
    <path
       fill="#6e675f"
       d="m 942.546,677.388 0.128,17.587 -0.112,34.544 -6.05,0.046 c -3.872,0.349 -7.116,0.421 -11.013,0.478 -11.657,0.043 -23.313,0.01 -34.969,-0.1 -0.027,3.853 0.129,14.127 -0.279,17.461 -0.613,-3.836 -0.222,-13.636 -0.13,-17.851 0.907,-2.35 0.477,-14.403 0.427,-17.543 l 17.593,0.4 0.135,-17.628 c 5.754,-0.045 11.509,-0.044 17.263,0.002 l 0.023,-17.391 z"
       id="path44" />
    <path
       fill="#3d2922"
       d="m 926.319,695.022 16.355,-0.047 -0.112,34.544 -6.05,0.046 c -3.024,-0.298 -7.342,-0.093 -10.482,-0.032 0.498,-10.956 0.292,-23.463 0.289,-34.511 z"
       id="path45" />
    <path
       fill="#6e675f"
       d="m 801.848,553.648 c 0.43,5.479 0.213,12.295 0.183,17.883 5.816,0.009 12.072,-0.084 17.849,0.096 l -0.039,69.91 -18.012,-0.031 0.199,-18.031 -17.529,0.014 c -0.295,-5.596 -0.165,-11.374 -0.127,-16.991 5.889,0.151 11.392,0.278 17.287,0.15 0,-5.22 0.536,-31.812 -0.572,-35.069 0.918,-1.759 0.229,-13.955 0.761,-17.931 z"
       id="path46" />
  </g>
  <g
     id="g74"
     transform="translate(75.072416,18.865292)">
    <path
       fill="#3d2922"
       d="m 503.656,325.102 c 5.871,0.504 12.611,0.346 18.565,0.352 -0.22,5.779 -0.13,12.075 -0.147,17.904 5.431,0.175 11.452,0.09 16.923,0.113 l -0.065,17.558 -16.792,0.125 c -0.231,11.151 -0.054,22.981 -0.062,34.184 23.43,0.099 46.86,0.05 70.29,-0.148 0.569,3.93 -0.789,14.898 1.135,17.308 l 1.589,0.316 c 5.144,0.231 10.032,0.199 15.171,0.175 l -0.149,34.763 c 5.468,-0.109 10.936,-0.19 16.404,-0.241 l -0.01,53.47 -16.532,0.025 0.044,35.059 -17.396,-0.063 -0.04,17.855 17.991,0.089 -0.12,17.209 c 5.475,0.244 10.955,0.358 16.435,0.342 -10e-4,28.889 0.338,58.483 -0.061,87.313 -5.4,0.051 -11.055,0.017 -16.429,0.26 -5.278,0.329 -31.08,0.912 -35.682,0.24 l -0.063,35.219 17.812,0.024 -0.339,17.508 -70.662,0.026 -0.049,-52.606 -17.356,-0.03 -0.023,52.691 c -23.645,-0.135 -47.291,-0.11 -70.936,0.075 l -0.026,-16.636 17.535,-0.03 c -0.086,-12.08 -0.057,-24.161 0.086,-36.242 -5.54,0.76 -28.166,0.002 -34.686,-0.105 l -18.468,-0.04 0.123,-87.77 18.218,0.162 c -0.367,-4.292 10e-4,-13.438 0.073,-18.076 l 17.106,0.574 0.045,-17.432 c -5.929,0.005 -11.858,-0.025 -17.786,-0.092 1.364,-5.059 0.752,-28.997 0.712,-35.488 l -18.889,-0.06 c -0.597,-16.951 -0.118,-36.766 -0.125,-53.905 l 19.019,0.083 -0.089,-35.165 17.517,-0.005 -0.221,-16.806 c 23.082,0.469 47.213,0.048 70.448,0.214 0.141,-11.458 0.177,-22.916 0.106,-34.374 l -17.839,-0.04 0.033,-17.521 17.68,-0.038 z"
       id="path47" />
    <path
       fill="#b9b39e"
       d="m 592.368,395.19 c 0.569,3.93 -0.789,14.898 1.135,17.308 l 1.589,0.316 c 5.144,0.231 10.032,0.199 15.171,0.175 l -0.149,34.763 c 5.468,-0.109 10.936,-0.19 16.404,-0.241 l -0.01,53.47 -16.532,0.025 0.044,35.059 -17.396,-0.063 c -17.433,-0.398 -36.031,0.038 -53.56,0.042 l -105.316,0.029 c 0.156,-41.188 0.102,-82.376 -0.164,-123.563 17.037,0.524 36.559,0.03 53.777,0.024 l 104.833,-0.027 c -0.133,-4.744 -0.331,-12.765 0.174,-17.317 z"
       id="path48" />
    <path
       fill="#3d2922"
       d="m 595.092,412.814 c 5.144,0.231 10.032,0.199 15.171,0.175 l -0.149,34.763 c 5.468,-0.109 10.936,-0.19 16.404,-0.241 l -0.01,53.47 -16.532,0.025 0.044,35.059 -17.396,-0.063 c -0.008,-10.97 -0.612,-121.165 0.448,-122.822 z"
       id="path49" />
    <path
       fill="#3d2922"
       d="m 473.313,500.253 c 27.642,-0.066 55.284,0.014 82.925,0.238 -0.106,5.93 -0.12,11.862 -0.044,17.792 l -4.069,0.059 -83.631,0.101 -0.003,-18.127 z"
       id="path50" />
    <path
       fill="#3d2922"
       d="m 468.46,447.978 18.25,-0.008 c -0.094,11.81 -0.094,23.62 0.002,35.429 -6.083,-0.027 -12.167,-0.016 -18.25,0.033 z"
       id="path51" />
    <path
       fill="#3d2922"
       d="m 538.141,448.485 18.293,-0.033 c 0.014,11.266 0.32,23.43 -0.03,34.602 -6.018,0.308 -12.042,0.472 -18.067,0.494 z"
       id="path52" />
    <path
       fill="#b9b39e"
       d="m 415.884,571.556 17.298,0.284 0.09,52.261 -17.323,-0.192 z"
       id="path53" />
    <path
       fill="#6e675f"
       d="m 591.752,639.952 c 5.901,-0.185 12.75,0.016 18.727,0.065 L 610.4,659.07 c -5.278,0.329 -31.08,0.912 -35.682,0.24 2.964,-0.409 13.236,-0.27 16.834,-0.291 0.034,-6.356 0.101,-12.712 0.2,-19.067 z"
       id="path54" />
    <path
       fill="#6e675f"
       d="m 415.995,639.82 c 5.395,0.026 12.107,-0.108 17.404,0.163 l -0.036,19.023 c 3.828,-0.018 13.952,-0.274 17.334,0.303 -5.54,0.76 -28.166,0.002 -34.686,-0.105 z"
       id="path55" />
    <path
       fill="#b9b39e"
       d="m 457.976,554.245 116.538,-0.122 0.051,86.917 -6.815,0.012 -116.792,0.184 0.085,-86.873 z"
       id="path56" />
    <path
       fill="#3d2922"
       d="m 468.57,571.541 c 29.091,0.337 58.748,0.036 87.866,-0.005 l -0.055,51.936 -87.756,0.029 z"
       id="path57" />
    <path
       fill="#928b7c"
       d="m 486.841,588.953 17.155,0.023 -0.009,17.422 -17.262,-0.028 z"
       id="path58" />
    <path
       fill="#928b7c"
       d="m 521.837,589.021 16.717,-0.027 c 0.013,2.633 0.45,15.707 -0.564,17.189 -5.441,0.111 -10.883,0.13 -16.325,0.058 z"
       id="path59" />
    <path
       fill="#b9b39e"
       d="m 592.787,571.423 17.289,0.07 0.062,52.655 c -5.728,-0.027 -11.64,0.107 -17.383,0.168 0.108,-17.631 0.118,-35.262 0.032,-52.893 z"
       id="path60" />
    <path
       fill="#b9b39e"
       d="m 468.027,659.397 18.102,0.007 c -0.151,11.882 -0.024,24.005 -0.075,35.92 -5.853,-0.159 -12.168,-0.069 -18.058,-0.087 z"
       id="path61" />
    <path
       fill="#b9b39e"
       d="m 539.458,659.426 17.845,-0.027 c -0.149,11.938 -0.153,23.877 -0.013,35.815 -4.143,0.338 -13.508,0.055 -18.042,0.059 0.278,-11.731 0.155,-24.071 0.21,-35.847 z"
       id="path62" />
  </g>
  <g
     id="g73"
     transform="translate(-54.677274,-129.92474)">
    <path
       fill="#3d2922"
       d="m 222.387,553.869 70.163,0.191 -0.041,17.406 17.692,0.056 0.01,17.467 16.951,0.026 0.241,17.409 17.592,0.142 0.09,17.053 17.657,0.242 0.027,17.215 c 5.922,0.319 11.487,0.229 17.409,0.172 -0.42,17.531 -0.262,35.605 -0.297,53.176 -5.749,-0.046 -11.335,-0.129 -17.084,0.123 l -0.185,0.226 -0.112,17.238 -17.381,-0.028 0.201,17.557 -17.957,0.034 -0.175,0.235 -0.055,17.618 -34.633,-0.174 0.01,17.164 -17.206,-0.022 c 0.033,5.54 0.002,11.08 -0.093,16.62 l -52.662,0.015 0.075,-33.64 c -11.56,-0.076 -23.122,-0.071 -34.682,0.016 l -0.04,-17.895 -18.305,0.066 c 0.031,-5.896 0.094,-11.791 0.192,-17.686 -11.382,0.043 -23.064,-0.191 -34.465,-0.305 l 0.089,17.948 -17.873,0.061 -0.035,17.859 c -11.661,-0.167 -23.3236,-0.185 -34.985,-0.052 l -0.0161,-53.637 c 6.177,0.249 11.6568,0.278 17.8401,0.206 -0.5985,-14.341 -0.5595,-38.149 0.025,-52.507 -5.8462,-0.286 -11.9833,-0.195 -17.8567,-0.203 l -0.0239,-51.967 c 11.8102,0.179 23.8606,0.104 35.6896,0.149 0.237,5.42 0.142,11.39 0.167,16.851 5.341,0.234 11.644,0.135 17.054,0.163 l -0.036,17.567 c 11.217,-10e-4 22.942,-0.179 34.105,0.285 l -0.06,-18.324 c 6.196,0.073 12.391,0.255 18.58,0.547 l -0.015,-17.656 c 5.607,-0.048 11.379,-0.246 16.998,-0.371 l -0.029,-16.981 17.375,-0.037 z"
       id="path63" />
    <path
       fill="#de7a2d"
       d="m 205.827,606.099 70.154,0.048 c 16.848,0.013 34.518,-0.27 51.275,0.09 l 0.006,18.221 c 6.197,0.023 11.553,0.041 17.739,-0.378 l 0.124,17.412 17.442,0.007 c 0.092,11.38 0.109,22.76 0.049,34.14 -0.018,5.364 -0.31,13.954 0.181,18.908 l -0.185,0.226 -0.112,17.238 -17.381,-0.028 0.201,17.557 -17.957,0.034 -0.175,0.235 c -2.745,-0.651 -29.423,-0.284 -33.724,-0.278 l -88.279,-0.007 0.162,-18.04 c -5.779,0.329 -11.109,0.423 -16.889,0.487 -0.064,-5.939 -0.074,-11.879 -0.03,-17.818 -5.77,-0.22 -12.543,-0.069 -18.391,-0.072 l 0.005,-52.579 18.204,0.081 -0.103,-17.071 17.385,-0.028 z"
       id="path64" />
    <path
       fill="#3d2922"
       d="m 327.352,712.011 17.767,-0.028 0.201,17.557 -17.957,0.034 c -0.262,-4.97 -0.023,-12.411 -0.011,-17.563 z"
       id="path65" />
    <path
       fill="#3d2922"
       d="m 345.007,694.466 c 4.105,-0.054 14.265,-0.375 17.605,0.307 l -0.112,17.238 -17.381,-0.028 c -0.289,-5.061 -0.1,-12.292 -0.112,-17.517 z"
       id="path66" />
    <path
       fill="#3d2922"
       d="m 307.831,641.744 c 6.367,-0.093 13.232,0.113 19.636,0.192 0.099,11.32 0.112,22.641 0.04,33.962 l -13.565,0.085 -20.974,-0.009 c 0.022,-11.334 -0.026,-22.668 -0.146,-34.001 z"
       id="path67" />
    <path
       fill="#3d2922"
       d="m 238.8,676.473 c 6.094,-0.036 12.188,-0.036 18.282,0.001 l -0.028,18.245 c -5.173,0.23 -11.063,0.022 -16.29,-0.046 -0.328,4.518 -0.074,12.033 -0.038,16.769 -1.806,1.08 -14.911,0.605 -17.869,0.585 l -0.051,-17.809 16.207,0.006 c -0.233,-5.795 -0.174,-11.927 -0.213,-17.751 z"
       id="path68" />
    <path
       fill="#de7a2d"
       d="m 100.93,606.114 c 4.839,0.01 12.501,-0.172 17.071,0.224 -0.166,6.052 -0.209,12.106 -0.129,18.159 5.403,0.029 11.387,-0.051 16.746,0.137 -0.112,5.624 -0.161,11.249 -0.147,16.874 l 17.894,0.016 c -0.056,17.148 -0.4,35.482 0.069,52.535 l -17.926,-0.015 c 0.143,5.682 0.184,11.914 0.49,17.55 l -17.487,-0.066 0.029,18.067 -16.614,-0.174 c 0.008,-11.566 0.203,-23.743 -0.242,-35.255 5.648,-0.127 11.298,-0.167 16.948,-0.122 0.396,-17.31 -0.307,-35.758 0.437,-52.807 -5.535,0.014 -11.689,0.13 -17.185,-0.043 0.104,-11.693 0.119,-23.387 0.046,-35.08 z"
       id="path69" />
    <path
       fill="#de7a2d"
       d="m 222.297,571.634 c 16.126,0.854 36.794,0.274 53.215,0.088 l -0.013,16.697 c -1.85,0.356 -14.125,0.185 -17.036,0.183 -12.023,-0.127 -24.046,0.013 -36.063,0.419 z"
       id="path70" />
    <path
       fill="#de7a2d"
       d="m 240.294,747.532 34.762,-0.029 0.166,16.685 c -11.647,-0.056 -23.294,-0.052 -34.941,0.013 0.195,-5.463 0.058,-11.184 0.013,-16.669 z"
       id="path71" />
  </g>
</svg>
